<svg xmlns="http://www.w3.org/2000/svg" xmlns:xlink="http://www.w3.org/1999/xlink" width="24" height="24" viewBox="0 0 24 24" fill="none">
<path d="M22.1485 9.65625L16.1485 9.65625C16.0454 9.65625 15.961 9.74062 15.961 9.84375L15.961 10.9688C15.961 11.0719 16.0454 11.1562 16.1485 11.1562L22.1485 11.1562C22.2516 11.1562 22.336 11.0719 22.336 10.9688L22.336 9.84375C22.336 9.74062 22.2516 9.65625 22.1485 9.65625ZM19.0079 12.8438L16.1485 12.8438C16.0454 12.8438 15.961 12.9281 15.961 13.0312L15.961 14.1562C15.961 14.2594 16.0454 14.3438 16.1485 14.3438L19.0079 14.3438C19.111 14.3438 19.1954 14.2594 19.1954 14.1562L19.1954 13.0312C19.1954 12.9281 19.111 12.8438 19.0079 12.8438ZM11.1868 7.55859L10.1719 7.55859C10.0266 7.55859 9.90942 7.67578 9.90942 7.82109L9.90942 13.6336C9.90942 13.718 9.94927 13.7953 10.0172 13.8445L13.5071 16.3898C13.6243 16.4742 13.7883 16.4508 13.8727 16.3336L14.475 15.5109L14.475 15.5086C14.5594 15.3914 14.5336 15.2273 14.4165 15.143L11.4469 12.9961L11.4469 7.82109C11.4493 7.67578 11.3297 7.55859 11.1868 7.55859Z"   fill="#383838" >
</path>
<path d="M18.8625 15.7945L17.5078 15.7945C17.3766 15.7945 17.2524 15.8625 17.1821 15.975C16.8844 16.4461 16.5375 16.882 16.1391 17.2804C15.4524 17.9672 14.6531 18.5062 13.7649 18.8812C12.8438 19.2703 11.8664 19.4672 10.8586 19.4672C9.84846 19.4672 8.87112 19.2703 7.95237 18.8812C7.06409 18.5062 6.26487 17.9672 5.57815 17.2804C4.89143 16.5937 4.35237 15.7945 3.97736 14.9062C3.5883 13.9875 3.39142 13.0101 3.39142 12C3.39142 10.9898 3.5883 10.0148 3.97736 9.09375C4.35237 8.20547 4.89143 7.40625 5.57815 6.71953C6.26487 6.03281 7.06409 5.49373 7.95237 5.11874C8.87112 4.72968 9.85081 4.5328 10.8586 4.5328C11.8688 4.5328 12.8461 4.72968 13.7649 5.11874C14.6531 5.49373 15.4524 6.03281 16.1391 6.71953C16.5375 7.11797 16.8844 7.55388 17.1821 8.025C17.2524 8.1375 17.3766 8.20547 17.5078 8.20547L18.8625 8.20547C19.0242 8.20547 19.1274 8.03672 19.0547 7.89373C17.5266 4.85389 14.4281 2.87811 10.9688 2.83827C5.90393 2.77499 1.69689 6.92107 1.68752 11.9812C1.67814 17.0508 5.78674 21.164 10.8563 21.164C14.3602 21.164 17.5102 19.1812 19.0547 16.1062C19.1274 15.9633 19.0219 15.7945 18.8625 15.7945Z"   fill="#383838" >
</path>
</svg>
