<svg xmlns="http://www.w3.org/2000/svg" xmlns:xlink="http://www.w3.org/1999/xlink" width="24" height="24" viewBox="0 0 24 24" fill="none">
<path d="M19.93 18.23C19.9024 18.1647 19.8791 18.0946 19.85 18.03C19.8209 17.9654 19.7907 17.9038 19.76 17.84C19.7293 17.7762 19.6922 17.7131 19.66 17.65C19.6278 17.5869 19.6038 17.5223 19.57 17.46C19.5363 17.3977 19.4953 17.3315 19.46 17.27C19.4248 17.2086 19.3867 17.1506 19.35 17.09C19.3133 17.0294 19.2782 16.9696 19.24 16.91C19.2018 16.8503 19.1696 16.7887 19.13 16.73C19.0904 16.6713 19.041 16.6177 19 16.56C18.959 16.5023 18.9224 16.4467 18.88 16.39C18.8376 16.3333 18.7938 16.2757 18.75 16.22C18.7062 16.1643 18.6651 16.1046 18.62 16.05C18.5749 15.9954 18.5264 15.9435 18.48 15.89C18.4336 15.8365 18.3877 15.7824 18.34 15.73C18.2923 15.6776 18.2389 15.6312 18.19 15.58C18.141 15.5288 18.0902 15.47 18.04 15.42C17.99 15.3699 17.9412 15.3289 17.89 15.28C17.8388 15.2311 17.7924 15.1777 17.74 15.13C17.6876 15.0824 17.6335 15.0364 17.58 14.99C17.5265 14.9436 17.4746 14.8951 17.42 14.85C17.3654 14.8049 17.3057 14.7638 17.25 14.72C17.1943 14.6762 17.1367 14.6324 17.08 14.59C17.0233 14.5476 16.9678 14.501 16.91 14.46C16.8523 14.419 16.7987 14.3796 16.74 14.34C16.6813 14.3004 16.6197 14.2682 16.56 14.23C16.5004 14.1918 16.4406 14.1567 16.38 14.12C16.3194 14.0833 16.2514 14.0452 16.19 14.01C16.1286 13.9747 16.0723 13.9338 16.01 13.9C15.9478 13.8663 15.883 13.8322 15.82 13.8C15.757 13.7677 15.6938 13.7407 15.63 13.71C15.5662 13.6793 15.5045 13.6492 15.44 13.62C15.3754 13.5908 15.3052 13.5676 15.24 13.54L15.22 13.52C16.6802 12.4653 17.63 10.7483 17.63 8.81C17.63 5.59906 15.0209 3 11.81 3C8.59906 3 6 5.59906 6 8.81C6 10.7483 6.94987 12.473 8.41 13.53L8.38 13.54C7.32998 13.983 6.38859 14.6191 5.58 15.43C5.52984 15.48 5.47889 15.5288 5.43 15.58C5.38109 15.6312 5.33767 15.6776 5.29 15.73C5.24234 15.7824 5.19638 15.8365 5.15 15.89C5.10361 15.9435 5.05508 15.9954 5.01 16.05C4.96492 16.1046 4.92375 16.1643 4.88 16.22C4.83625 16.2757 4.79239 16.3333 4.75 16.39C4.70761 16.4467 4.661 16.5023 4.62 16.56C4.57898 16.6177 4.53959 16.6813 4.5 16.74C4.46039 16.7987 4.41817 16.8504 4.38 16.91C4.34183 16.9696 4.30672 17.0294 4.27 17.09C4.23327 17.1506 4.19525 17.2186 4.16 17.28C4.12475 17.3414 4.09377 17.3977 4.06 17.46C4.02625 17.5223 3.99225 17.587 3.96 17.65C3.92775 17.7131 3.9007 17.7762 3.87 17.84C3.83928 17.9038 3.80917 17.9655 3.78 18.03C3.75083 18.0945 3.71759 18.1648 3.69 18.23C3.66288 18.2939 3.63558 18.3555 3.61 18.42C3.58442 18.4845 3.56405 18.5449 3.54 18.61C3.51597 18.6751 3.49247 18.7444 3.47 18.81C3.44752 18.8756 3.42089 18.9438 3.4 19.01C3.37909 19.0762 3.35931 19.1434 3.34 19.21C3.32069 19.2766 3.30772 19.3429 3.29 19.41C3.27228 19.4771 3.25611 19.5425 3.24 19.61C3.22389 19.6775 3.2045 19.7421 3.19 19.81C3.17552 19.8779 3.16287 19.9518 3.15 20.02C3.13714 20.0882 3.12123 20.1515 3.11 20.22C3.09877 20.2885 3.08 20.3613 3.08 20.43C3.08 20.4987 3.06 20.5611 3.06 20.63C3.06 20.6989 3.03 20.7709 3.03 20.84C3.03 20.9091 3.02 20.9808 3.02 21.05C3.02 21.1192 3.01 21.1907 3.01 21.26C3.01 21.3293 3 21.3906 3 21.46L3 21.47L3 21.48L3 21.49L3 21.5L3 21.51L3.01 21.52L3.01 21.53L3.01 21.54L3.02 21.55L3.03 21.56L3.03 21.57L3.04 21.58L3.04 21.59L3.05 21.59L3.05 21.6L3.06 21.61L3.07 21.61L3.07 21.62L3.08 21.62L3.09 21.63L3.1 21.63L3.11 21.64L3.12 21.64L3.13 21.65L3.14 21.65L3.15 21.65L3.16 21.65L3.17 21.66L3.18 21.66L3.19 21.66L4.59 21.66C4.69312 21.66 4.78 21.5708 4.78 21.47C4.82687 19.6606 5.55565 17.9744 6.84 16.69C8.16893 15.3611 9.93029 14.63 11.81 14.63C13.6897 14.63 15.4611 15.3611 16.79 16.69C18.0744 17.9744 18.7931 19.6606 18.84 21.47C18.84 21.5731 18.9269 21.66 19.03 21.66L20.44 21.66L20.45 21.66L20.46 21.66L20.47 21.65L20.48 21.65L20.49 21.65L20.5 21.64L20.51 21.64L20.52 21.64L20.53 21.63L20.54 21.63L20.54 21.62L20.55 21.62L20.56 21.61L20.57 21.61L20.57 21.6L20.58 21.59L20.59 21.58L20.6 21.57L20.6 21.56L20.6 21.55L20.61 21.55L20.61 21.54L20.62 21.53L20.62 21.52L20.62 21.51L20.62 21.5L20.62 21.49L20.62 21.48L20.63 21.47L20.63 21.46C20.6066 20.3397 20.3659 19.2589 19.93 18.23ZM11.81 12.84C10.7342 12.84 9.72172 12.4217 8.96 11.66C8.19828 10.8983 7.78 9.88578 7.78 8.81C7.78 7.73422 8.19828 6.72172 8.96 5.96C9.72172 5.19828 10.7342 4.78 11.81 4.78C12.8858 4.78 13.8983 5.19828 14.66 5.96C15.4217 6.72172 15.84 7.73422 15.84 8.81C15.84 9.88578 15.4217 10.8983 14.66 11.66C13.8983 12.4217 12.8858 12.84 11.81 12.84Z"   fill="#383838" >
</path>
</svg>
