<svg xmlns="http://www.w3.org/2000/svg" xmlns:xlink="http://www.w3.org/1999/xlink" width="24" height="24" viewBox="0 0 24 24" fill="none">
<path d="M22.0827 11.3953C19.8608 6.71484 16.5022 4.35938 11.9999 4.35938C7.49519 4.35938 4.13896 6.71484 1.91708 11.3977C1.91153 11.4094 1.90614 11.4212 1.90092 11.4331C1.8957 11.445 1.89065 11.457 1.88575 11.469C1.88086 11.481 1.87614 11.4932 1.87158 11.5053C1.86702 11.5175 1.86263 11.5297 1.85841 11.542C1.85419 11.5543 1.85014 11.5666 1.84626 11.579C1.84238 11.5914 1.83867 11.6039 1.83513 11.6164C1.83159 11.6289 1.82823 11.6414 1.82504 11.654C1.82185 11.6666 1.81883 11.6792 1.81599 11.6919C1.81315 11.7046 1.81048 11.7173 1.80799 11.7301C1.80549 11.7428 1.80318 11.7556 1.80104 11.7684C1.7989 11.7812 1.79694 11.7941 1.79515 11.8069C1.79337 11.8198 1.79176 11.8327 1.79033 11.8456C1.7889 11.8585 1.78764 11.8714 1.78657 11.8844C1.7855 11.8973 1.7846 11.9103 1.78389 11.9233C1.78317 11.9362 1.78263 11.9492 1.78228 11.9622C1.78192 11.9752 1.78174 11.9882 1.78174 12.0012C1.78174 12.0142 1.78192 12.0271 1.78228 12.0401C1.78263 12.0531 1.78317 12.0661 1.78389 12.0791C1.7846 12.092 1.7855 12.105 1.78657 12.118C1.78764 12.1309 1.7889 12.1438 1.79033 12.1567C1.79176 12.1697 1.79337 12.1826 1.79515 12.1954C1.79694 12.2083 1.7989 12.2211 1.80104 12.2339C1.80318 12.2467 1.80549 12.2595 1.80799 12.2723C1.81048 12.285 1.81315 12.2977 1.81599 12.3104C1.81883 12.3231 1.82185 12.3357 1.82504 12.3483C1.82823 12.3609 1.83159 12.3735 1.83513 12.386C1.83867 12.3985 1.84238 12.4109 1.84626 12.4233C1.85014 12.4357 1.85419 12.4481 1.85841 12.4603C1.86263 12.4726 1.86702 12.4849 1.87158 12.497C1.87614 12.5092 1.88086 12.5213 1.88575 12.5333C1.89065 12.5454 1.8957 12.5573 1.90092 12.5692C1.90614 12.5811 1.91153 12.5929 1.91708 12.6047C4.13896 17.2852 7.49754 19.6406 11.9999 19.6406C16.5046 19.6406 19.8608 17.2852 22.0827 12.6023C22.2632 12.2227 22.2632 11.782 22.0827 11.3953ZM11.9999 17.9531C8.21941 17.9531 5.45146 16.0359 3.49911 12C5.45146 7.96406 8.21941 6.04688 11.9999 6.04688C15.7803 6.04688 18.5483 7.96406 20.5007 12C18.5507 16.0359 15.7827 17.9531 11.9999 17.9531ZM11.9061 7.875C9.628 7.875 7.78115 9.72187 7.78115 12C7.78115 14.2781 9.628 16.125 11.9061 16.125C14.1843 16.125 16.0311 14.2781 16.0311 12C16.0311 9.72187 14.1843 7.875 11.9061 7.875ZM11.9061 14.625C10.4554 14.625 9.28113 13.4508 9.28113 12C9.28113 10.5492 10.4554 9.375 11.9061 9.375C13.3569 9.375 14.5311 10.5492 14.5311 12C14.5311 13.4508 13.3569 14.625 11.9061 14.625Z"   fill="#383838" >
</path>
</svg>
